<?xml version="1.0" encoding="utf-8"?>
<!-- Generator: Adobe Illustrator 25.3.1, SVG Export Plug-In . SVG Version: 6.00 Build 0)  -->
<svg version="1.1" id="Layer_1" xmlns="http://www.w3.org/2000/svg" xmlns:xlink="http://www.w3.org/1999/xlink" x="0px" y="0px"
	 viewBox="0 0 128.59 129.6" style="enable-background:new 0 0 128.59 129.6;" xml:space="preserve">
<style type="text/css">
	.st0{fill:#FFFFFF;}
	.st1{fill:#0A5772;}
</style>
<path class="st0" d="M64.55,0.26c18.17,0,36.34,0.05,54.51-0.04c4.84-0.02,8.76,3.45,9.41,7.71c0.07,0.47,0.11,0.95,0.11,1.43
	c0.01,36.64,0.01,73.28,0,109.92c0,4.86-3.86,8.88-8.69,9.09c-0.32,0.01-0.64,0.01-0.96,0.01c-36.26,0-72.52,0-108.79,0
	c-4.55,0-7.99-2.45-9.19-6.58c-0.25-0.87-0.38-1.8-0.39-2.71c0-36.51,0-73.03,0.01-109.55c0-5.2,3.91-9.21,9.11-9.27
	c4.39-0.05,8.79-0.01,13.18-0.01C36.76,0.26,50.65,0.26,64.55,0.26z M68.84,56.52c0-2.56-0.05-4.75,0.02-6.95
	c0.03-1.07-0.27-1.46-1.41-1.45c-5.23,0.06-10.46,0.07-15.69,0c-1.25-0.02-1.53,0.39-1.53,1.57c0.03,19.48,0.03,38.95,0,58.43
	c0,1.19,0.31,1.61,1.54,1.59c5.43-0.06,10.86-0.06,16.29,0c1.21,0.01,1.55-0.35,1.54-1.57c-0.05-9.8-0.05-19.6-0.01-29.4
	c0.01-2.03,0.14-4.08,0.49-6.07c0.74-4.14,2.62-7.5,7.05-8.61c1.33-0.33,2.76-0.41,4.14-0.39c4.62,0.05,7.44,2.19,8.46,6.73
	c0.55,2.43,0.76,4.97,0.78,7.47c0.08,10.08,0.05,20.16,0.01,30.24c0,1.17,0.3,1.62,1.55,1.61c5.43-0.06,10.86-0.05,16.29,0
	c1.16,0.01,1.48-0.37,1.48-1.51c-0.04-10.84-0.03-21.68-0.01-32.52c0.01-4.44-0.22-8.86-1.24-13.2c-1.39-5.93-4.12-10.98-9.94-13.59
	c-5.78-2.59-11.84-3.1-17.98-1.5C75.66,48.72,71.83,51.82,68.84,56.52z M19.32,78.89c0,9.8,0.01,19.59-0.02,29.39
	c0,1,0.21,1.44,1.3,1.43c5.59-0.04,11.18-0.04,16.77,0c1.01,0.01,1.29-0.38,1.29-1.35c-0.02-19.63-0.02-39.26,0-58.89
	c0-1.08-0.37-1.34-1.39-1.34c-5.51,0.04-11.02,0.05-16.53-0.01c-1.19-0.01-1.45,0.38-1.45,1.5C19.34,59.38,19.32,69.14,19.32,78.89z
	 M28.97,39.93c6.18,0,11.13-4.91,11.14-11.04c0.01-6.22-4.94-11.21-11.11-11.22c-6.21,0-11.12,4.94-11.12,11.18
	C17.88,35.03,22.79,39.93,28.97,39.93z"/>
<path class="st1" d="M68.84,56.52c2.99-4.7,6.82-7.8,11.86-9.12c6.13-1.6,12.2-1.09,17.98,1.5c5.82,2.61,8.55,7.66,9.94,13.59
	c1.02,4.34,1.25,8.76,1.24,13.2c-0.03,10.84-0.03,21.68,0.01,32.52c0,1.15-0.32,1.52-1.48,1.51c-5.43-0.05-10.86-0.05-16.29,0
	c-1.24,0.01-1.55-0.44-1.55-1.61c0.04-10.08,0.07-20.16-0.01-30.24c-0.02-2.49-0.23-5.04-0.78-7.47c-1.02-4.54-3.84-6.67-8.46-6.73
	c-1.38-0.02-2.81,0.06-4.14,0.39c-4.43,1.11-6.32,4.47-7.05,8.61c-0.35,1.99-0.48,4.05-0.49,6.07c-0.05,9.8-0.04,19.6,0.01,29.4
	c0.01,1.22-0.33,1.59-1.54,1.57c-5.43-0.05-10.86-0.06-16.29,0c-1.23,0.01-1.54-0.4-1.54-1.59c0.03-19.48,0.03-38.95,0-58.43
	c0-1.18,0.28-1.59,1.53-1.57c5.23,0.07,10.46,0.06,15.69,0c1.14-0.01,1.44,0.38,1.41,1.45C68.79,51.77,68.84,53.96,68.84,56.52z"/>
<path class="st1" d="M19.32,78.89c0-9.76,0.02-19.51-0.02-29.27c0-1.12,0.26-1.51,1.45-1.5c5.51,0.06,11.02,0.05,16.53,0.01
	c1.02-0.01,1.39,0.25,1.39,1.34c-0.03,19.63-0.03,39.26,0,58.89c0,0.97-0.28,1.35-1.29,1.35c-5.59-0.03-11.18-0.04-16.77,0
	c-1.1,0.01-1.31-0.44-1.3-1.43C19.34,98.48,19.32,88.69,19.32,78.89z"/>
<path class="st1" d="M28.97,39.93c-6.17,0-11.08-4.91-11.09-11.08c0-6.25,4.91-11.19,11.12-11.18c6.17,0,11.11,5,11.11,11.22
	C40.1,35.02,35.14,39.94,28.97,39.93z"/>
</svg>
