<?xml version="1.0" encoding="utf-8"?>
<!-- Generator: Adobe Illustrator 26.1.0, SVG Export Plug-In . SVG Version: 6.00 Build 0)  -->
<svg version="1.1" id="Layer_1" xmlns="http://www.w3.org/2000/svg" xmlns:xlink="http://www.w3.org/1999/xlink" x="0px" y="0px"
	 viewBox="0 0 864 540" style="enable-background:new 0 0 864 540;" xml:space="preserve">
<style type="text/css">
	.st0{fill:#FFF91D;}
	.st1{fill:#FF6700;}
	.st2{fill:#FF2980;}
	.st3{fill:#A700FF;}
	.st4{fill:#00FF79;}
	.st5{fill:#00B1FF;}
</style>
<g>
	<path class="st0" d="M770.9,505c4,0,8,0,12.4,0c0-4.5,0-8.3,0-13c-10.5,0-20.9,0-31.6,0c0-20.1,0-39.3,0-58.9c29.8,0,59.3,0,89.4,0
		c0,19.3,0,38.5,0,58.7c-10.6,0-21.2,0-32.1,0c0,4.8,0,8.6,0,13.1c4.4,0,8.4,0,12.4,0c0,0.6,0,1.2,0,1.7c-16.8,0-33.6,0-50.4,0
		C770.9,506.1,770.9,505.5,770.9,505z M760.4,441.8c0,14.2,0,27.6,0,41.8c23.3,0,46.2,0.1,69.2-0.1c1.2,0,3.5-2.2,3.6-3.3
		c0.3-12.7,0.2-25.3,0.2-38.4C808.7,441.8,784.8,441.8,760.4,441.8z"/>
	<path class="st0" d="M738.2,352.9c0,4.7,0,8.3,0,12.6c3.9,0.4,7.8,0.7,11.8,1.1c0,0.3,0,0.6-0.1,0.9c-15.8,0-31.7,0-47.5,0
		c0-0.3,0-0.7-0.1-1c3.5-0.3,7-0.5,11.1-0.9c0-4,0-7.8,0-12.4c-10.6,0-21.3,0-32.4,0c0-20,0-39.3,0-59.1c30.1,0,60.1,0,90.4,0
		c0,19.6,0,38.8,0,58.7C760.4,352.9,749.7,352.9,738.2,352.9z M762.4,302.3c-24.3,0-48.1,0-72.4,0c0,14,0,27.6,0,41.6
		c24.3,0,48.1,0,72.4,0C762.4,329.9,762.4,316.4,762.4,302.3z"/>
	<path class="st0" d="M612.8,434.5c29.8,0,59.4,0,89.4,0c0,19.4,0,38.6,0,58.8c-11,0-21.8,0-33,0c0,4.7,0,8.5,0,13
		c4.3,0,8.4,0,12.4,0c0,0.6,0,1.1,0,1.7c-16.4,0-32.8,0-49.1,0c-0.1-0.4-0.1-0.7-0.2-1.1c3.8-0.3,7.6-0.6,12-0.9c0-3.7,0-7.5,0-12.3
		c-10.2,0-20.6,0-31.5,0C612.8,473.3,612.8,454.1,612.8,434.5z M620.5,443.1c0,12.4,0.2,24.1-0.1,35.8c-0.1,4.8,1.6,6.4,6.3,6.3
		c19.3-0.2,38.7-0.1,58-0.1c2.9,0,5.7-0.3,8.5-0.4c0-14.3,0-27.9,0-41.6C669,443.1,645.3,443.1,620.5,443.1z"/>
	<path class="st0" d="M668.6,400.4c0,8.7,0,17.4,0,26.1c-0.8,0.2-1.5,0.4-2.3,0.7c-0.8-1.6-2.2-3.3-2.3-5
		c-0.3-5.6-0.3-11.3-0.1-16.9c0.1-4.4-1.7-5.6-6-6.2c-6-0.8-11.7-3.5-17.7-4.3c-6.5-0.8-13.2-0.1-19.8-0.3c-1,0-2-1.4-3-2.2
		c1.1-0.9,2.2-2.6,3.3-2.6c5.1-0.3,10.3,0.1,15.4-0.2c4.4-0.3,10.1,2.4,12.4-4.5c0.2-0.7,3.1-0.7,4.7-0.7c8.1-0.1,16.2-0.1,24.3,0
		c3.3,0.1,7.6-1.5,8.5,4.1c0.1,0.6,2.1,1.1,3.2,1.1c11,0.1,22,0,33.5,0c0.3-4.3,0.5-7.9,0.8-11.5c4.9-1,4.9-1,6.1,11.5
		c11.1,0,22.3,0,33.5,0c0.7,0,2,0,2.1-0.3c3.7-8.5,11.2-4.2,17-4.8c6.6-0.6,15.6-2.8,19.4,0.5c8.8,7.7,18.3,3,27.2,4.9
		c1.2,0.3,2.2,1.8,3.2,2.8c-1,0.7-2.1,2-3.1,2.1c-4.4,0.3-8.9-0.2-13.2,0.2c-3.9,0.4-9.8-3.1-10.9,4.6c-0.1,0.5-2.6,0.8-4,0.8
		c-3.9,0.1-7.8,0-12.9,0c0,7.5,0.2,14.8-0.2,22c-0.1,1.7-2.2,3.4-3.3,5c-0.7-0.4-1.4-0.8-2.1-1.2c0-8.3,0-16.5,0-25.8
		c-3.4,0-6.2,0.1-9,0c-2.7-0.1-6,1-6.5-3.6c-0.1-0.8-3.1-1.9-4.8-1.9c-23.8-0.1-47.6-0.7-71.4,0.3c-5.9,0.3-11.6,5.6-18.5,4.4
		C671.3,399.3,670.3,399.9,668.6,400.4z"/>
</g>
<g>
	<path class="st1" d="M23,364.3c3.5-9.5,10.6-12.3,20.3-12.2c28.3,0.3,56.6,0.2,84.9,0.2c1.6,0,3.3-0.2,4.7-0.9
		c14.5-7,29-6.9,43.6-0.1c1.4,0.6,3.1,0.9,4.6,0.9c7.6,0.1,15.2,0,22.9,0.1c10.2,0,16.9,5.8,17.1,15.5c0.3,17.6,0.2,35.2,0,52.8
		c-0.1,8.2-4.1,12.4-14.2,15.8c0,3.1,0,6.3,0,9.5c0,3.2,0,6.4,0,10c-2.8,0.1-5.2,0.3-8.2,0.4c0,6.7,0,13.4,0,20.3
		c-7.7,0-14.8,0-22.3,0c0-6.8,0-13.3,0-20.2c-36.2,0-72,0-108.2,0c0,6.8,0,13.3,0,20.2c-7.5,0-14.6,0-22.2,0c0-6.6,0-13.2,0-20
		c-2.9-0.2-5.3-0.4-8.3-0.7c0-6.6,0-13.1,0-19.8c-7.9-1.2-12.2-5.8-14.5-12.7C23,403.6,23,383.9,23,364.3z M121.7,358.5
		c-0.4-0.1-0.8-0.3-1.2-0.3c-27.3,0-54.5-0.1-81.8,0c-6,0-9.7,4-9.7,10.1c0,16.7,0,33.4,0,50.1c0,8.2,3.1,11.3,11.4,11.3
		c23.7,0,47.5,0,71.2,0.1c3.3,0,6.6,0,10.2,0C101.3,400.6,101.3,387.2,121.7,358.5z M154.1,435.6c22.9,0.2,41.6-18,42.2-40.4
		c0.6-21.5-16.2-42.5-41.2-42.9c-22.8-0.4-42,18.4-42.3,40.6C112.6,416.5,130.8,435.4,154.1,435.6z M43.5,449.9
		c52.4,0,104.5,0,156.8,0c0-4.8,0-9.2,0-14.1c-4.4,0-8.5,0.1-12.5,0c-5.4-0.1-10.5,0.6-15.7,2.8c-12.6,5.2-25.4,4.5-37.9-1.1
		c-2.1-0.9-4.4-1.6-6.7-1.6c-26.5-0.1-53.1-0.1-79.6,0c-1.4,0-2.8,0.2-4.3,0.3C43.5,440.8,43.5,445,43.5,449.9z M186.9,358.2
		c19.1,19,22,48.7,0.8,71.2c7,0,13.9,0.3,20.6-0.1c3.9-0.3,6.5-4.4,6.6-8.7c0.1-17.7,0.1-35.4,0-53.2c0-5.1-3.7-9-8.7-9.2
		C200,358,193.8,358.2,186.9,358.2z M52.2,456.9c-0.1,2.2-0.2,4-0.2,5.7c-0.1,8.6,0,8.8,8.8,7.7c0.1,0,0.2-0.2,0.5-0.4
		c0-4.1,0-8.4,0-12.9C58.2,456.9,55.5,456.9,52.2,456.9z M182.6,471.1c3.5-0.7,8.3-0.7,8.7-2.1c1-3.6,0.8-7.9-0.3-11.5
		c-0.3-1.1-5.4-0.6-8.4-0.9C182.6,461.6,182.6,465.7,182.6,471.1z"/>
	<path class="st1" d="M95.9,393.4c0,8.8,0,17.2,0,26c-3.3,0-6.4,0-9.4,0c-15.1,0-30.2-0.1-45.2,0.1c-3.1,0-4.1-0.9-4-4
		c0.2-7.3,0.1-14.6,0.1-22.1C57,393.4,76.2,393.4,95.9,393.4z M66.9,413.2c4.8,0,9.7,0,14.5,0c8.4,0,8.2,0,8.6-8.6
		c0.2-4-1.2-5.1-5-5c-10.7,0.2-21.4,0-32.1,0.1c-11.3,0.1-9-1.4-9.4,9.6c-0.1,3.2,1,4.1,4,4C54,413.1,60.5,413.2,66.9,413.2z"/>
	<path class="st1" d="M38.5,374.3c0-2,0-3.6,0-5.4c14.7,0,29.3,0,44.2,0c0,1.8,0,3.4,0,5.4C68.1,374.3,53.5,374.3,38.5,374.3z"/>
	<path class="st1" d="M38.6,386.5c0-1.7,0-3.4,0-5.4c6.5,0,13,0,19.7,0c0,1.7,0,3.4,0,5.4C51.9,386.5,45.4,386.5,38.6,386.5z"/>
	<path class="st1" d="M123.1,394.2c-0.2-17.5,13.7-31.7,31.1-31.8c17.4-0.2,31.6,13.5,32,30.6c0.4,18.1-13.7,32.7-31.6,32.9
		C137.4,425.9,123.3,411.7,123.1,394.2z M154.6,368.7c-14.1,0-25.3,11.2-25.3,25.4c0,13.7,11.3,25.4,25,25.5
		c14,0.2,25.6-11.2,25.7-25.1C180.1,380,169,368.7,154.6,368.7z"/>
	<path class="st1" d="M137.7,394.6c-0.2-10.4,6.5-17.1,16.9-17.6c0,1.7,0,3.4,0,5.4c-5.7,1.2-9.8,4.2-11.3,10.4
		C143.1,393.7,140,393.9,137.7,394.6z"/>
</g>
<g>
	<path class="st2" d="M360,375.6c3-0.2,6-0.5,9.3-0.8c0.1-1.6,0.2-3,0.2-4.5c0-11.4,0.1-22.9,0-34.3c0-2.5,0.7-3.9,3-5.2
		c15.8-9,31.5-18.3,47.3-27.3c1.3-0.8,3.8-0.9,5.1-0.1c22.6,12.6,45.1,25.3,67.6,38.1c1.1,0.6,2.1,2.4,2.3,3.8c0.3,3,0.1,6,0.1,9.1
		c0.1,11.6-1,23.4,3.5,34.5c0.3,0.6,0.5,1.4,0.4,2c-0.9,11.5,2.9,22.4,4.6,33.6c1.3,8.8,0.2,17.5-2.6,26c-0.8,2.5-1.4,5.3-1.5,8
		c-0.1,7.6-0.7,15.1-3.7,22.2c-0.6,1.3-0.6,2.9-0.6,4.4c-0.1,7-0.1,14,0,21.1c0,2.4-0.8,3.7-2.8,4.9c-15.7,9-31.3,18.1-46.9,27.3
		c-0.8,0.5-1.5,1.1-2.3,1.7c-0.5,0-1.1,0-1.6,0c-2.3-0.6-4.6-1.8-6.9-1.8c-23.2-0.1-46.4-0.1-69.7-0.1c-1.6,0-3.2-0.4-4.8-0.6
		C360,483.5,360,429.6,360,375.6z M405.2,511.9c2,1.1,3.9,2.3,5.9,3.4l-0.1-0.1c5.4,3.3,10.8,6.7,16.2,10c4.4,2.6,8.8,5.1,13.4,7.8
		c1.2-8,1.3-8.1-4.6-11.4c-7.2-4.1-14.5-8-21.8-12.1c-0.3-0.3-0.6-0.6-0.9-0.9c-1.6-0.9-3.2-1.7-4.8-2.6c-0.3-0.3-0.6-0.5-0.9-0.8
		c-10.6-6.3-21.3-12.6-31.9-18.9c-0.4,0.2-0.8,0.5-1.2,0.7c0.7,2.9,0.5,7.2,2.2,8.3c9.3,6,19.1,11.2,28.7,16.6
		C405.4,512,405.2,511.9,405.2,511.9z M404.2,444.3c1.8,1.1,3.6,2.1,4.9,2.9c0.9-2.3,1.7-4.4,2.6-6.7c-0.5-0.3-1.4-0.8-2.9-1.6
		c0.8,4.4-1.2,5.7-4.7,5.5c-0.6-2.6-2-5.5,2.6-6.9c-10.9-6.3-21-12.1-32-18.5c1.1,4.2-1.6,8,2.7,10.3
		C386.3,434.3,395.2,439.3,404.2,444.3z M404.7,413.7l-0.1-0.1c1.7,1.2,3.3,2.3,4.3,3c1.2-2.5,2.2-4.5,3.3-6.9
		c-11.7-6.8-24.2-14-36.6-21.3c-0.4,0.2-0.7,0.5-1.1,0.7c0.5,2.8,0.2,7.1,1.8,8.1C385.5,403.3,395.2,408.4,404.7,413.7z
		 M407.4,493.9c-10.6-6.1-21.1-12.3-32.4-18.8c0.4,4.5-1.6,8.3,3.1,10.9c19.7,11.2,39.3,22.7,59,34.1c1.1,0.7,2.3,1.2,3.5,1.8
		c0.4-0.2,0.8-0.3,1.2-0.5c-0.7-3.2-0.4-8.2-2.3-9.4c-10-6.3-20.6-11.7-31-17.5C408.1,494.3,407.7,494.1,407.4,493.9z M492.6,345.9
		c-1.2,0.5-1.9,0.7-2.4,1.1c-15,9-30.1,17.9-45,27.1c-1.2,0.7-2,3.1-2,4.7c-0.1,51.3-0.1,102.7-0.1,154c0,1.1,0.2,2.3,0.3,3.8
		c2.2-1.2,4-2.2,5.8-3.2c13.3-7.7,26.5-15.5,39.8-23c2.9-1.6,3.8-3.5,3.8-6.8c-0.1-51-0.1-102.1-0.1-153.1
		C492.6,349.1,492.6,347.8,492.6,345.9z M491.4,344.3c-0.7-0.6-0.9-0.9-1.3-1.1c-21.9-12.5-43.7-25-65.6-37.3
		c-1.1-0.6-3.2-0.4-4.4,0.3c-14.5,8.3-28.9,16.7-43.4,25.1c-1.2,0.7-2.3,1.5-3.8,2.5c1.8,1,3,1.7,4.2,2.4
		c20.6,12,41.2,23.9,61.8,35.8c1.4,0.8,3.9,1.3,5.1,0.6C459.7,363.3,475.3,353.9,491.4,344.3z M433.5,536.3c0.1-0.2,0.2-0.5,0.3-0.7
		c-1.3-0.8-2.5-1.6-3.8-2.3c-18.7-10.9-37.3-21.8-56.1-32.5c-3.3-1.9-4.4-4-4.4-7.8c0.1-36.6,0.1-73.2,0.1-109.8c0-7.1,0-7.1-7-6.2
		c-0.2,0-0.4,0.3-0.6,0.4c0,53,0,105.9,0,158.9C386.1,536.3,409.8,536.3,433.5,536.3z M440.9,424.5c0-16.7,0-32.7,0-48.2
		c-12.8,0-25.3,0.6-37.7-0.2c-10.9-0.7-18.1,6.1-27.3,10.6C397.9,399.5,419.1,411.8,440.9,424.5z M441.2,510.6
		c0-7.6,0.1-14.2-0.1-20.7c0-1.2-1.1-2.8-2.2-3.4c-13.4-7.7-26.8-15.3-40.3-22.9c-1-0.5-2.5-1.1-3.3-0.7c-6.3,3.4-12.5,7-19.4,10.9
		C397.9,486.2,419.1,498.2,441.2,510.6z M441.3,455.7c0-6.1,0.2-11.1-0.1-16c-0.1-1.3-1.2-3.1-2.3-3.7
		c-14.7-8.7-29.5-17.3-44.3-25.8c-1-0.5-2.5-1.1-3.3-0.7c-5,2.5-9.8,5.2-15.4,8.3C397.9,430.5,419.2,442.9,441.3,455.7z
		 M417.6,361.6c-12.1-7-23.4-13.6-35.1-20.3c0,11.6,0,22.5,0,33.8c4.3-0.2,8.7,0.6,12-0.9C402.3,370.7,409.5,366.1,417.6,361.6z
		 M436.9,374.2c0.1-0.4,0.2-0.8,0.3-1.1c-5.8-3.2-11.6-6.4-17.5-9.5c-0.6-0.3-1.7-0.4-2.3-0.1c-6.1,3.4-12.2,6.8-19.1,10.7
		C411.9,374.2,424.4,374.2,436.9,374.2z M440.5,435c0.4-0.2,0.8-0.4,1.3-0.7c-0.6-2.8-0.2-7-2-8.2c-7.8-5.3-16.1-9.7-23.7-14.1
		c-1.3,2.4-2.4,4.4-3.7,6.6C421.5,423.9,431,429.5,440.5,435z M416,453c-1.2,2.2-2.2,4.2-3.3,6.3c9.1,5.2,18.5,10.7,28,16.2
		c0.4-0.3,0.7-0.6,1.1-0.8c-0.7-2.8-0.4-6.9-2.1-8.1C431.9,461.6,423.7,457.3,416,453z M440.5,485.4c0.5-0.3,0.9-0.6,1.4-0.8
		c-0.8-2.6-0.7-6.3-2.4-7.4c-7.7-5.1-15.8-9.5-23.5-13.9c-1.1,2.3-2,4.3-3,6.6C421.8,474.9,431.1,480.1,440.5,485.4z M375.9,440
		c-0.5,0.2-1,0.4-1.4,0.6c0.6,2.9,0.3,7.2,2.1,8.3c8.5,5.6,17.6,10.3,26,15c1.2-2.3,2.2-4.4,3.3-6.6
		C396.2,451.7,386.1,445.8,375.9,440z M412.7,449.3c9,5.1,18.4,10.4,28.1,15.8c1-4.8,0.5-7.9-4.1-10.2c-7.3-3.6-14.1-8-20.6-11.8
		C414.9,445.4,413.9,447.1,412.7,449.3z M375.8,430.4c-0.4,0.2-0.8,0.4-1.2,0.5c0.5,2.4,0.2,6.1,1.7,7c8.8,5.7,17.9,10.7,26.5,15.6
		c0.9-2.3,1.6-4.3,2.5-6.6C395.7,441.6,385.7,436,375.8,430.4z M374.6,375.1c0.3-0.2,0.6-0.3,0.9-0.5c0-12,0-24.1-0.1-36.1
		c0-0.9-1.1-1.7-1.7-2.5c-0.5,0.4-0.7,0.5-0.7,0.6c-0.1,12.2-0.2,24.3-0.2,36.5C372.8,373.7,374,374.4,374.6,375.1z M498.7,446.2
		c2.5-10.6,2.5-20.5-0.3-31.4C493.1,425.8,494.1,435.6,498.7,446.2z M377.4,374.2c0.4,0.3,0.8,0.6,1.3,1c0.6-1,1.8-2,1.9-3
		c0.1-9.9,0.2-19.8,0-29.7c0-1.4-1.3-2.8-2.1-4.2c-0.4,0.2-0.7,0.4-1.1,0.5C377.4,350.7,377.4,362.4,377.4,374.2z M382.5,468.2
		c4.2-2.4,7.9-4.5,12.2-6.9c-4.3-2.4-8-4.5-12.2-6.9C382.5,459.3,382.5,463.4,382.5,468.2z M372.9,473.8c4-3.4,3.5-22.4,0-24.8
		C372.9,457,372.9,465.1,372.9,473.8z M372.9,397.4c0,7,0,13.6,0,20.4C376.6,414.9,376.7,400.6,372.9,397.4z M377.4,470.2
		c0.4,0.1,0.9,0.3,1.3,0.4c4-4.3,1.2-9.9,1.8-14.9c0.2-1.3-1.3-2.7-2.1-4.1c-0.3,0.2-0.7,0.4-1,0.6
		C377.4,458.2,377.4,464.2,377.4,470.2z M377.4,414.7c3.5-1.7,3.6-1.7,3.1-10.1c-0.1-1.5-1.3-2.9-2-4.3c-0.4,0.2-0.8,0.3-1.1,0.5
		C377.4,405.3,377.4,409.8,377.4,414.7z M382.6,403.3c0,3.3,0,5.9,0,9c2.7-1.6,5-2.8,7.8-4.4C387.5,406.1,385.3,404.8,382.6,403.3z
		 M372.7,386.7c4.1-1.7,2.7-4.9,2.8-7.5c0-0.8-0.8-1.7-1.2-2.5c-0.5,0.8-1.5,1.5-1.5,2.3C372.5,381.4,372.7,383.9,372.7,386.7z
		 M409.4,459.5c-1,2.2-1.8,4.3-2.9,6.7c0.6,0.3,1.8,1,2.4,1.4c1.1-2.2,2.1-4.2,3.2-6.5C411.5,460.7,410.2,459.9,409.4,459.5z
		 M377.4,383.7c3.7-0.9,3.4-3.4,3-5.6c-0.1-0.7-1.6-1.2-3-2.1C377.4,379.2,377.4,381.3,377.4,383.7z M389.5,377.3
		c-0.1-0.2-0.1-0.4-0.2-0.7c-2.2,0-4.5,0-7.1,0c0.1,1.5,0.2,2.7,0.3,4.4C385.2,379.6,387.3,378.5,389.5,377.3z M406.6,455.8
		c0.7,0.4,1.8,1,2.5,1.4c0.9-2.2,1.7-4.2,2.7-6.5c-0.5-0.3-1.7-0.8-2.3-1.1C408.5,451.7,407.7,453.5,406.6,455.8z M495.7,392.5
		c-0.1,0-0.2-0.1-0.4-0.1c0,3.5,0,7.1,0,10.6c0.3,0,0.7,0,1-0.1C496.1,399.4,495.9,396,495.7,392.5z"/>
	<path class="st2" d="M408.4,494.5c0.1,0.5,0.4,1.1,0.2,1.6c-0.5,1.5-1.2,2.8-1.9,4.3c-1.1-0.7-3.2-1.6-3.1-2.2
		c0.2-1.4,1.3-2.7,2.2-4c0.2-0.3,1-0.2,1.5-0.2C407.7,494.1,408.1,494.3,408.4,494.5z"/>
	<path class="st2" d="M414.3,509.4c1.6,4.3,1,5.4-3.3,5.7c0,0,0.1,0.1,0.1,0.1c-2.4-3.9-2-5.2,2.3-6.7
		C413.6,508.9,414,509.1,414.3,509.4z"/>
	<path class="st2" d="M405.4,512c-0.6-1.6-1.7-3.3-1.6-4.9c0-0.7,2.4-1.3,3.8-1.9c0.3,0.3,0.6,0.5,0.9,0.8c0.7,3,0.5,5.4-3.3,5.9
		L405.4,512z"/>
	<path class="st2" d="M396.4,493.2c-6-3.5-12.1-7-18.1-10.6c0.2-0.4,0.5-0.9,0.7-1.3c6,3.5,12.1,7,18.1,10.5
		C396.9,492.3,396.6,492.7,396.4,493.2z"/>
	<path class="st2" d="M412.1,496.3c1.6,2.2,3,3.3,2.9,4.3c-0.1,1.2-1.6,2.3-2.4,3.4c-1-0.9-2.7-1.7-2.8-2.7
		C409.7,500.1,410.9,498.7,412.1,496.3z"/>
	<path class="st2" d="M379,394.4c6.1,3.5,12.2,7.1,18.3,10.6c-0.3,0.5-0.5,0.9-0.8,1.4c-6.1-3.5-12.1-7.1-18.2-10.6
		C378.5,395.3,378.8,394.8,379,394.4z"/>
	<path class="st2" d="M404.7,413.7c-0.1-0.1-0.2-0.2-0.2-0.3c-0.1-1.7-0.4-3.5-0.1-5.2c0.1-0.3,2.6-0.9,3.1-0.4
		c0.8,0.8,1.5,2.9,1.1,3.5c-0.9,1.1-2.6,1.6-4,2.3C404.6,413.6,404.7,413.7,404.7,413.7z"/>
	<path class="st2" d="M379,491.5c6.1,3.5,12.1,7.1,18.2,10.6c-0.3,0.5-0.5,0.9-0.8,1.4c-6.1-3.5-12.1-7.1-18.2-10.6
		C378.5,492.4,378.8,492,379,491.5z"/>
	<path class="st2" d="M379,445.5c6,3.5,12.1,7,18.1,10.5c-0.3,0.4-0.5,0.9-0.8,1.3c-6.1-3.5-12.1-7-18.2-10.5
		C378.5,446.4,378.7,446,379,445.5z"/>
	<path class="st2" d="M379.1,425.1c6,3.5,12,7,18,10.4c-0.3,0.5-0.5,0.9-0.8,1.4c-6-3.5-12-7-18-10.5
		C378.6,426,378.8,425.6,379.1,425.1z"/>
	<path class="st2" d="M379.1,435.3c6,3.5,12,7,18.1,10.5c-0.2,0.4-0.5,0.8-0.7,1.3c-6-3.5-12.1-6.9-18.1-10.4
		C378.5,436.2,378.8,435.7,379.1,435.3z"/>
</g>
<g>
	<path class="st3" d="M168.1,96.7c3.3,0.4,6.6,0.8,9.8,1.2c7,0.9,14,1.8,21,2.8c1.5,0.2,2.9,0.7,4.3,1.2c1.4,0.6,1.5,0.9,1.2,2.1
		c-0.6,3.3-1.2,6.6-1.9,9.8c-0.8,4-1.6,7.9-2.3,11.9c-1.1,5.4-2.2,10.9-3.2,16.3c-1.1,5.4-2.1,10.8-3.1,16.1c-0.5,2.5-1,5.1-1.6,7.7
		c0.6,0.2,1.2,0.4,1.7,0.6c4.3,1.6,7.5,4.7,10.1,8.4c1.1,1.5,1.9,3.1,2.9,4.7c0.3,0.4,0.7,0.8,1.2,1c4.7,1.4,9.1,3.5,13,6.5
		c3.4,2.6,7.2,4.4,11.1,6.3c3,1.5,5.6,3.5,7.3,6.5c1.8,3.3,1.9,6.8,1.1,10.3c-1.3,5.4-4,10.3-6.4,15.2c-2.9,5.9-6.5,11.4-10.8,16.4
		c-1.8,2-3.4,4.2-4.8,6c0.9,1.1,1.7,2.1,2.6,3.1c2.1,2.6,2.2,5.3,0.9,8.3c-3.5,8-9.7,13.2-17.4,16.8c-4.9,2.3-10,3.3-15.3,3.6
		c-2.3,0.1-4.6,0.2-6.9-0.3c-4.4-1.1-5.8-4.5-5-8.6c1-5.2,3.6-9.7,6.3-14.2c2.2-3.7,5-6.8,8.5-9.3c-1.4,0.7-2.8,1.4-4.1,2.1
		c-10.4,5.9-20.9,11.8-31.3,17.8c-1.7,0.9-3.3,0.7-5,0.5c-4.1-0.6-8.2-1.2-12.3-2c-5.4-1-10.9-2.2-16.3-3.3
		c-3.6-0.7-7.2-1.4-10.8-2.1c-4.4-0.9-8.8-1.8-13.1-2.7c-3.6-0.7-7.1-1.4-10.7-2.2c-5.2-1.1-10.3-2.2-15.5-3.3
		c-4.5-0.9-9-1.9-13.4-2.8c-5.6-1.2-11.1-2.4-16.6-3.6c-4.3-0.9-8.6-1.8-12.8-2.7c-4.1-0.9-8.3-1.8-12.4-2.7
		c-3.4-0.7-6.8-1.4-10.2-2.1c-1.7-0.4-3.3-0.8-5-1.1c-0.9-0.2-1.4-0.7-1.7-1.5c-0.7-1.9-1.1-3.9-0.9-5.9c0.1-1,0.5-1.7,1.3-2.3
		c5.6-4.2,11.2-8.3,16.7-12.5c4.9-3.7,9.6-7.6,14.4-11.4c3.8-3,7.8-5.6,12.4-7.3c2.8-1,5.7-1.5,8.7-1.7c7.2-0.3,14,1.4,20.8,3.4
		c5.5,1.6,11.2,3,16.8,4.4c5.7,1.4,11.5,2.7,17.3,3.9c3.9,0.9,7.9,1.6,11.9,2.4c-0.7-0.9-1.5-1.6-2.1-2.5c-1.7-2.2-1.4-4.3,0.9-6
		c1.8-1.4,4-2.2,6.2-2.6c7.9-1.5,15.7-2.8,23.6-4.2c1.2-0.2,2.5-0.2,3.9-0.4c-0.4-1.6-0.9-3.1-1-4.6c-0.2-2.2-1.5-2.8-3.4-3.2
		c-5.9-1.2-11.8-2.6-17.7-3.9c-6.1-1.3-12.1-2.6-18.2-3.9c-1.7-0.4-3.4-0.9-5.1-1.1c-0.9-0.1-1.9,0-2.7,0.5c-1.6,0.9-3,2-4.4,3.1
		c-1.5,1.2-2.9,2.4-4.8,2.7c-0.5,0.1-0.9,0.1-1.4,0c-6.6-1.1-13.3-2.2-19.9-3.5c-7.9-1.5-15.9-3.1-23.8-4.8
		c-2.6-0.5-5.2-1.4-7.7-2.1c-0.7-0.2-1.3-0.6-2-0.9c-0.9-0.4-1.2-1.1-1.2-2.2c0.1-11,0.3-22,0.4-32.9c0.1-9,0.1-18.1,0.2-27.1
		c0.1-10.7,0.2-21.4,0.4-32c0.2-10.6,0.5-21.3,0.9-31.9c0.1-2.9,0.5-5.9,0.8-8.8c0.1-0.7,0.3-1.2,1-1.6
		c13.1-6.9,26.2-13.8,39.4-20.6C90,10,97.4,6.2,104.9,2.4c0.6-0.3,1.1-0.5,1.7-0.8c4.1-2,4.4-1.9,9.6-0.8c5.1,1.1,10.2,2,15.3,2.9
		c5.6,1.1,11.3,2.2,16.9,3.3c4.5,0.9,8.9,1.7,13.4,2.5c1.4,0.3,2.8,0.6,4.2,0.9c1.1,0.2,1.5,0.8,1.5,1.9c0,2.1,0.1,4.3,0.1,6.4
		c0,8.3,0.1,16.7,0.1,25c0,5.1,0,10.2,0.1,15.3c0.1,12.3,0.2,24.5,0.2,36.8C168.1,96,168.1,96.2,168.1,96.7z M91.8,172.6
		c-1.8-0.3-3.5-0.6-5.1-1c-1.4-0.4-2-1.2-1.7-2.5c0.5-3.2,1.1-6.3,1.6-9.5c0.9-5,1.8-10,2.6-15c0.9-5.4,1.9-10.9,2.8-16.3
		c0.9-6,2-12,2.6-18c0.7-7.1,1.2-14.1,1.4-21.2c0.4-12.1,0.5-24.2,0.7-36.4c0-1.7,0-3.5,0-5.2c-17.3-3.2-34.5-6.3-51.9-9.5
		c0,0.6-0.1,1.2-0.1,1.7c-0.1,6.6-0.2,13.2-0.3,19.8c-0.2,13.1-0.4,26.2-0.6,39.4c-0.2,12.5-0.4,24.9-0.6,37.4
		c-0.2,10.3-0.3,20.7-0.5,31c0,1,0.4,1.3,1.2,1.5c3.7,0.8,7.5,1.6,11.2,2.3c5.6,1.2,11.1,2.3,16.7,3.5c5.2,1.1,10.4,2.2,15.6,3.2
		c1.6,0.3,3.2,0.6,4.9,1C92.2,176.6,92,174.6,91.8,172.6z M109.3,89c0.2,0,0.4,0.1,0.6,0c4.9-0.2,9.7,0.2,14.5,0.9
		c4.7,0.6,9.4,1.4,14.2,2.2c5.9,1,11.8,2,17.7,2.9c2.8,0.5,5.7,0.8,8.7,1.3c0-0.5,0-0.9,0-1.3c-0.1-9.7-0.2-19.3-0.2-29
		c-0.1-10.4-0.1-20.8-0.1-31.1c0-6.4-0.2-12.7-0.3-19.1c0-0.3-0.1-0.6-0.1-1.1c-2.8,1.5-5.4,2.8-8,4.3c-8.9,4.8-17.7,9.7-26.6,14.5
		c-6.2,3.4-12.3,6.7-18.5,10.1c-0.4,0.2-0.8,0.7-0.8,1.1c-0.2,3.2-0.3,6.5-0.4,9.7c-0.2,8.9-0.5,17.9-0.7,26.8
		C109.3,83.8,109.3,86.4,109.3,89z M57.5,30.5c3.6,0.7,7,1.4,10.4,2.1c5,1,10,2,15.1,2.9c6.7,1.3,13.4,2.5,20.1,3.8
		c4,0.8,4,0.8,7.5-1.1c13.3-7.3,26.6-14.5,39.9-21.8c2.2-1.2,4.4-2.4,6.7-3.7c-0.5-0.1-0.8-0.3-1.1-0.3c-6.8-1.4-13.5-2.9-20.3-4.3
		c-7.2-1.5-14.3-2.9-21.5-4.5c-2-0.4-3.8-0.5-5.5,0.8c-0.5,0.3-1.1,0.5-1.6,0.8c-13.8,7-27.6,14.1-41.3,21.1
		C63.1,27.6,60.4,29,57.5,30.5z M101.4,93.2c-4.4,25.1-8.7,50.1-13.1,75.1c0.4,0.1,0.6,0.2,0.9,0.3c5.1,1.2,10.2,2.3,15.3,3.5
		c5.7,1.3,11.5,2.5,17.2,3.8c7.9,1.7,15.7,3.5,23.6,5.3c9,2,18,4,27,6c2,0.4,4,0.9,6,1.3c0.4,0.1,0.9,0.3,1.1-0.5
		c0.7-3.7,1.4-7.3,2.2-11c0.9-4.8,1.9-9.6,2.8-14.5c0.8-4.3,1.7-8.6,2.6-12.9c1.1-5.4,2.1-10.9,3.2-16.3c0.7-3.7,1.5-7.4,2.2-11.1
		c0.7-3.5,1.4-6.9,2.1-10.4c0.4-2.2,0.9-4.4,1.3-6.7C164.4,101.1,133,97.2,101.4,93.2z M195.3,225.9c-1-0.2-1.7-0.4-2.5-0.6
		c-4.3-0.9-8.6-1.7-12.8-2.6c-4.6-0.9-9.1-1.9-13.7-2.9c-5.3-1.1-10.7-2.1-16-3.2c-4.6-0.9-9.2-1.9-13.7-2.9
		c-5.2-1.1-10.4-2-15.6-3.1c-7.1-1.5-14.3-3-21.4-4.5c-5.3-1.1-10.6-2.1-15.9-3.2c-3.6-0.7-7.3-1.5-10.9-2.2c-3.3-0.7-6.6-1.3-9.9-2
		c-4.5-0.9-9.1-1.9-13.6-2.9c-0.4-0.1-1,0.1-1.4,0.4c-2.4,1.8-4.8,3.6-7.2,5.4c-10.6,8-21.3,15.9-31.9,23.9
		c-0.9,0.7-1.7,1.4-2.8,2.2c1.4,0.3,2.6,0.5,3.8,0.8c4.2,0.9,8.3,1.8,12.5,2.6c5.3,1.1,10.6,2.1,15.9,3.2c4.1,0.8,8.2,1.7,12.4,2.5
		c6.7,1.4,13.5,2.7,20.2,4.1c6.2,1.3,12.4,2.6,18.6,3.8c6.2,1.3,12.4,2.5,18.7,3.7c7.7,1.6,15.3,3.1,23,4.7
		c6.9,1.4,13.7,2.8,20.6,4.2c0.8,0.2,1.5,0.1,2.1-0.4c2.1-1.6,4.2-3.2,6.3-4.8c10-7.4,20-14.8,30-22.3
		C191.7,228.7,193.4,227.3,195.3,225.9z M169.6,189.8c0.3,1.7,0.4,3.3,0.7,4.8c0,0.2,0.4,0.4,0.6,0.5c1.1,0.4,2.2,0.6,3.3,1
		c3,1,6,1.8,8.5,3.7c0.8,0.6,1.5,1.3,1.9,2.1c0.7,1.3,0,3.1-1.7,4.2c-2.1,1.4-4.3,2.7-6.6,3.8c-4.4,2.2-9.1,3.8-14,4.5
		c-2.2,0.3-4.5,0.7-6.7,1c2.2,0.4,4.4,0.7,6.6,0.9c6.4,0.6,12.9,1.1,19.3,1.6c4.2,0.4,8.3,1.2,12.3,2.6c3,1.1,5.5,2.9,6.8,6
		c0.5,1.1,1.1,2.1,1.7,3.1c1.5-0.7,3.5-2.7,4.6-4.4c2.9-4.4,3.8-9.3,3.7-14.4c-0.1-5.3-0.8-10.5-1.9-15.6c-0.8-3.8-1.8-7.6-3.5-11
		c-0.2-0.4-0.6-0.7-1-0.8c-1.6-0.4-3.2-0.8-4.8-1.1c-3.1-0.6-6.2-1.1-9.3-1.7c-0.6-0.1-0.7,0.1-0.9,0.6c-1.2,4.6-3.8,8.1-7.9,10.5
		c-0.4,0.2-0.9,0.3-1.3,0.2c-1.7-0.3-3.5-0.7-5.2-1.1C173.2,190.5,171.5,190.2,169.6,189.8z M195.9,245.2c0,0.1,0,0.2,0.1,0.3
		c0.2-0.1,0.4-0.1,0.5-0.2c1.8-0.4,3.6-0.9,5.4-1.1c4.2-0.4,8.2,0.6,12.1,1.9c0.8,0.3,1.2,0.1,1.7-0.5c3.9-5.3,7.9-10.4,12.5-15
		c3.9-4,6.3-8.7,7.3-14.1c0.9-4.9,1.2-9.9,0.1-14.9c-0.6-2.9-2.1-5.1-5.5-5.4c-0.2,0-0.4-0.1-0.7-0.2c-3.4-1.1-6.2-3-8.6-5.5
		c-1.9-1.9-4.2-3.1-6.6-4.1c-1.4-0.5-2.7-1-4.3-1.5c0.2,0.5,0.3,0.8,0.4,1.2c0.9,3.6,2,7.2,2.7,10.9c0.6,2.8,0.8,5.8,1.1,8.7
		c0.4,4.5,0.6,9-0.4,13.4c-0.9,4.4-2.8,8.2-6,11.3c-1,0.9-2,1.8-3.1,2.8c0.2,0.4,0.4,0.8,0.6,1.1c0.7,1.3,1.2,2.6,1.1,4.1
		c-0.2,2.1-1.6,3.4-3.4,4.1C200.5,243.5,198.2,244.3,195.9,245.2z M195.9,249.5c-1.2-0.1-2.8,0.3-4.3,1.1c-2.7,1.4-4.6,3.7-5.9,6.4
		c-1.3,2.9-2.4,5.9-3.3,9c-0.6,2-0.9,4.1-1.1,6.2c-0.4,4.2,1.9,6.5,6,6c1.8-0.2,3.6-0.6,5.3-1.2c6.5-2.3,12.7-5.3,18.4-9.2
		c2.8-1.9,5.4-4.1,7.1-7.1c0.4-0.7,0.3-1.2-0.2-1.6c-1.1-0.8-2.1-1.8-3.3-2.4c-3.7-1.9-7.5-3.7-11.3-5.4
		C201,250.3,198.8,249.5,195.9,249.5z M153.3,196c-0.2,0-0.4-0.1-0.5-0.1c-3.9,0.1-7.8,0-11.6,0.2c-4.2,0.2-8.4,0.7-12.4,2.2
		c-2.3,0.8-4.4,1.9-5.8,4.1c-1.5,2.4-1.1,4.7,1.3,6.1c1.4,0.8,2.9,1.4,4.4,1.8c4.7,1.3,9.5,1.7,14.3,1.8c4.3,0.1,8.7,0.1,13-0.3
		c3.9-0.3,7.8-1.2,11.6-2c3.2-0.7,6.4-1.5,9.2-3.2c0.9-0.5,1.7-1.3,2.4-2.1c0.9-1,0.7-2.1-0.4-2.9c-0.8-0.6-1.6-1.1-2.5-1.4
		c-1.7-0.7-3.4-1.2-5.3-1.9c0.1,0.9,0.2,1.5,0.3,2.1c0.5,1.8,0.2,3.4-1.4,4.5c-1.5,1.1-3.1,2.2-4.9,2.9c-1.8,0.8-3.7,0.6-5.6-0.2
		c-2.8-1.3-4.7-3.5-6.2-6.1C152.3,199.9,151.7,198,153.3,196z M3.5,233.8c49.7,10.3,99.3,20.5,149.1,30.8c-0.5-1.2-0.8-2.1-1.3-3
		c-0.2-0.4-0.6-0.8-1-0.9c-2.7-0.6-5.5-1.2-8.2-1.7c-4.2-0.9-8.4-1.7-12.7-2.6c-4.7-1-9.4-1.9-14-2.9c-4.1-0.8-8.2-1.7-12.3-2.5
		c-3.7-0.7-7.3-1.4-11-2.2c-5.2-1.1-10.4-2.2-15.6-3.2c-4.2-0.9-8.4-1.7-12.6-2.5c-4.7-1-9.3-2-14-2.9c-5.3-1.1-10.5-2.1-15.8-3.2
		c-4.2-0.9-8.4-1.7-12.7-2.6c-4.8-1-9.6-1.9-14.3-2.9c-1.1-0.2-2.2-0.4-3.4-0.7C3.6,231.8,3.5,232.8,3.5,233.8z M198.1,228.5
		c-0.9,0.6-1.7,1.1-2.4,1.7c-10.1,7.3-20.1,14.7-30.2,22c-3.2,2.4-6.5,4.7-9.7,7.1c-0.3,0.2-0.8,0.7-0.8,1c0.2,1.1,0.5,2.2,0.9,3.4
		c15.9-8.6,31.6-17.1,47.4-25.7C201.5,234.8,199.8,231.7,198.1,228.5z M105.5,44.4c-1.8,0.9-3.4,1.6-5,2.5c-0.3,0.2-0.5,0.7-0.6,1
		c-0.1,4.2-0.1,8.5-0.2,12.7c-0.1,9.4-0.2,18.7-0.3,28.1c0,0.3,0.1,0.6,0.1,0.7c1.9,0,3.7,0,5.4,0c0.9,0,1.1-0.4,1.1-1.2
		c-0.1-5.8-0.1-11.6-0.2-17.5c-0.1-7.6-0.1-15.3-0.2-22.9C105.7,46.8,105.6,45.7,105.5,44.4z M48.1,35.4c1.2,0.2,2.1,0.3,3,0.5
		c4.6,0.9,9.2,1.8,13.9,2.7c5.8,1.1,11.6,2.1,17.5,3.1c5,0.9,10.1,1.9,15.1,2.8c0.2,0,0.5,0.1,0.7,0c1.2-0.6,2.5-1.2,3.7-1.9
		c-3.7-0.9-7.3-1.6-10.9-2.3c-6.6-1.3-13.2-2.5-19.8-3.7c-6-1.2-12-2.3-18-3.5c-0.2,0-0.4-0.1-0.6,0C51.2,33.7,49.8,34.4,48.1,35.4z
		 M199.4,104.2c-4.1,27.9-11.1,55.1-16.4,82.7c0.9-0.6,2.1-0.7,2.3-2.2c0.5-3.1,1.2-6.2,1.8-9.3c1-5.1,2-10.2,3-15.3
		c1.2-6.2,2.4-12.4,3.6-18.6c1.2-5.9,2.4-11.7,3.5-17.6c1.1-5.7,2.2-11.3,3.3-17c0.1-0.8,0.3-1.5,0.4-2.3
		C200.4,104.4,199.9,104.3,199.4,104.2z M165.5,203c0-0.3,0-0.5,0-0.7c-0.9-4.5-1.9-9-2.8-13.5c-0.1-0.2-0.3-0.6-0.5-0.6
		c-2.4-0.5-4.9-1-7.4-1.6c0,0.2,0,0.3,0,0.5c1,4.5,2,9,3.1,13.5c0.1,0.4,0.4,0.9,0.7,0.9C160.9,201.9,163.1,202.4,165.5,203z
		 M202.2,179c0-0.2,0-0.2,0-0.3c-2.3-3.9-5.3-7.2-9.7-8.8c-0.7-0.3-0.9,0-1.1,0.7c-0.3,1.8-0.7,3.5-1.2,5.3c-0.2,0.7,0,0.9,0.7,1.1
		c2.1,0.3,4.2,0.8,6.3,1.2C198.9,178.4,200.6,178.7,202.2,179z M219.4,255.8c0.5-2-1.9-5.1-3.4-6c-0.1-0.1-0.2-0.1-0.3-0.1
		c-1.6,0-3.2,0.3-4.6,1.1C214,252.5,216.7,254.2,219.4,255.8z M212.6,248c-3.8-1.3-7.6-1.1-11.4-0.6c2.2,0.7,4.3,1.3,6.5,1.9
		c0.2,0.1,0.5,0,0.8,0C209.9,248.9,211.2,248.5,212.6,248z"/>
	<path class="st3" d="M92,64.2c0,3.4,0.1,6.8,0,10.1c-0.1,2.3-0.4,4.5-0.9,6.7c-0.3,1.7-0.9,1.9-2.6,1.6c-3.2-0.6-6.5-1.1-9.7-1.6
		c-5.2-0.9-10.4-1.7-15.6-2.7c-3.8-0.7-7.5-1.6-11.2-2.5c-1.2-0.3-2.3-0.8-3.5-1.3c-0.9-0.4-1.3-1-1.3-2.1c0.4-7.2,0.6-14.3,1-21.5
		c0.1-2,0.7-4,1.2-6c0.2-0.9,0.9-1.3,1.9-1.1c5.8,0.9,11.6,1.6,17.4,2.5c5.9,0.9,11.8,1.9,17.7,3c1.5,0.3,3,0.9,4.5,1.4
		c1,0.3,1.4,1,1.4,2.2c-0.1,3.7,0,7.4,0,11.1C92.2,64.2,92.1,64.2,92,64.2z M51.2,61.4c-0.2,3.5-0.5,6.8-0.6,10.1
		c0,0.2,0.3,0.6,0.6,0.6c4.6,1,9.3,1.9,13.9,2.8c6.1,1.2,12.1,2.3,18.2,3.5c1.6,0.3,3.2,0.6,4.9,0.9c0-0.4,0.1-0.7,0.1-0.9
		c0.1-3.1,0.2-6.2,0.4-9.2c0-0.9-0.2-1.2-1.1-1.4c-3.5-0.6-6.9-1.2-10.3-1.9c-7.2-1.3-14.3-2.6-21.5-3.8
		C54.2,61.8,52.8,61.6,51.2,61.4z M88.8,64.9c0.1-3.7,0.3-7.3,0.3-10.8c0-0.2-0.4-0.6-0.7-0.6c-3.2-0.6-6.3-1.1-9.5-1.6
		c-3.8-0.7-7.6-1.3-11.4-2c-3.4-0.6-6.9-1.1-10.3-1.7c-1.7-0.3-3.5-0.6-5.3-0.9c0,0.4-0.1,0.7-0.1,1c-0.1,2.4-0.3,4.9-0.4,7.3
		c-0.1,2.3-0.1,2.3,2,2.8c4,0.8,8,1.6,12,2.3c5.9,1.1,11.8,2.2,17.7,3.2C85,64.2,86.8,64.5,88.8,64.9z"/>
	<path class="st3" d="M90.5,91.3c-0.5,3.1-1.4,6.5-3.8,9.4c-1.4,1.7-3.2,1.9-4.9,0.4c-4.4-3.6-4.9-8-2.9-12.9
		c0.7-1.8,2.3-2.8,4.2-2.9c1.6-0.1,3.2,0.1,4.7,0.7C89.8,86.8,90.5,88.6,90.5,91.3z M81.4,93.1c0.2,1.6,0.3,3.2,0.6,4.8
		c0.3,1.3,1.1,1.5,2.2,0.7c3.7-2.9,3.8-7.6,0.2-10.7c-1.3-1.1-2.2-0.9-2.5,0.7C81.7,90,81.6,91.5,81.4,93.1z"/>
	<path class="st3" d="M57,118c-1.1,1-2.5,2.3-3.9,3.5c-0.3,0.3-0.8,0.5-1.3,0.6c-1.1,0.3-2.1,0-2.3-1.1c-0.3-1.5-0.5-3.1-0.3-4.6
		c0.2-1.7,1.8-2.2,3.3-2.3c1.1,0,2.2,0.1,3.3,0.3c1.4,0.3,1.7,0.8,1.8,2.3c2-2,4.4-1.5,6.8-0.9c1.3,0.3,1.7,1.4,1.1,2.6
		c-1.2,2.2-2.9,3.9-5.2,5c-1.3,0.6-2.5,0-2.9-1.6C57.1,120.4,57.1,119,57,118z M53.1,118.8c0.6-1.3,0.2-2.1-1.1-2.1
		C52.4,117.4,52.7,118.1,53.1,118.8z M61.5,120c0.5-1.2,0.1-1.8-1.1-2C60.8,118.7,61.1,119.3,61.5,120z"/>
	<path class="st3" d="M92.9,157.7c0.4-2.9,0.7-5.9,1.2-8.8c0.6-3.9,1.3-7.8,2-11.8c0.7-4.1,1.5-8.2,2.3-12.3
		c1.2-6.1,2.5-12.2,3.8-18.4c0.6-2.9,1.2-5.7,1.8-8.6c0.2-1,0.9-1.2,1.8-1.2c2.2,0.2,4.3,0.5,6.5,0.7c3.2,0.4,6.4,0.7,9.6,1
		c4.5,0.5,9,1,13.6,1.5c2.9,0.3,5.7,0.6,8.6,0.9c4.1,0.5,8.1,1,12.1,1.5c4.1,0.5,8.2,1,12.3,1.5c3.5,0.5,7,1,10.5,1.5
		c3.6,0.6,7.1,1.2,10.7,1.8c0.2,0,0.3,0.1,0.5,0.1c2.5,0.7,2.5,0.7,2,3.3c-1.1,5.8-2.1,11.6-3.2,17.5c-1.1,5.7-2.1,11.4-3.2,17
		c-1,5.2-2,10.4-3.2,15.5c-1,4.5-2.2,9-3.4,13.4c-0.8,2.9-0.9,2.9-3.8,2.3c-5.5-1.1-11.1-2.2-16.6-3.3c-5.5-1.1-11-2.1-16.4-3.1
		c-5.5-1.1-11-2.2-16.5-3.2c-3.9-0.7-7.7-1.4-11.6-2.2c-5.6-1.1-11.1-2.2-16.7-3.3c-1-0.2-2.1-0.5-3.2-0.6c-1-0.1-1.3-0.6-1.3-1.5
		c0-0.5,0-1.1,0-1.6C93,157.7,93,157.7,92.9,157.7z M176.7,173.4c4.2-21.3,8.3-42.4,12.4-63.6c-2.2-0.3-4.2-0.5-6.2-0.8
		c-2.9-0.4-5.8-0.7-8.8-1c-3.9-0.5-7.8-0.9-11.8-1.4c-3.6-0.4-7.2-0.9-10.8-1.3c-3.9-0.5-7.8-0.9-11.8-1.4c-2.8-0.3-5.6-0.7-8.4-1
		c-3.1-0.4-6.2-0.7-9.3-1c-4.9-0.6-9.8-1.2-14.6-1.8c-0.7-0.1-0.9,0.2-1,0.8c-0.2,1.1-0.4,2.3-0.6,3.4c-1.1,5.8-2.1,11.6-3.2,17.3
		c-0.9,5-1.9,9.9-2.8,14.9c-1,5.2-2,10.4-2.9,15.7c-0.3,1.9-0.7,3.7-1.1,5.7C122.9,163.1,149.7,168.2,176.7,173.4z"/>
	<path class="st3" d="M14.9,223.3c2.2-1.7,4.1-3.2,6.1-4.8c6-4.7,12-9.5,18.1-14.1c2.3-1.8,4.8-3.3,7.3-5c1.2-0.8,2.5-1,4-0.7
		c7,1.6,14,3.1,21.1,4.6c8.2,1.7,16.4,3.3,24.7,4.8c6.5,1.2,13.1,2.1,19.6,3.1c7,1.1,14,2.2,20.8,4.2c1.8,0.5,3.6,1.3,5.2,2.2
		c2,1.1,2.5,3.1,1,4.9c-1.2,1.5-2.6,2.8-4.1,4c-6.8,5.2-13.7,10.4-20.6,15.5c-1.7,1.3-3.5,2.6-5.2,3.9c-0.6,0.4-1.1,0.5-1.8,0.4
		c-3.6-0.8-7.1-1.5-10.7-2.2c-5.8-1.3-11.6-2.6-17.4-3.9c-4.2-0.9-8.3-1.9-12.5-2.8c-7.2-1.7-14.4-3.4-21.7-5.1
		c-6.9-1.6-13.8-3.2-20.7-4.9c-4-1-7.9-2.2-11.9-3.3C15.9,223.9,15.5,223.6,14.9,223.3z M42.7,228.3c0.4,0.2,0.7,0.3,0.9,0.4
		c3.8,0.8,7.6,1.7,11.4,2.5c6.1,1.3,12.2,2.5,18.3,3.8c0.3,0.1,0.8,0.2,1.1,0c1.2-0.8,2.4-1.7,3.8-2.7c-1.9-0.4-3.6-0.7-5.3-1.1
		c-4.1-0.9-8.3-1.7-12.4-2.6c-4.5-0.9-9-1.8-13.4-2.7c-0.4-0.1-1-0.1-1.3,0.2C44.6,226.8,43.7,227.5,42.7,228.3z M134.3,224.4
		c-2.4-0.4-4.5-0.9-6.7-1.2c-0.6-0.1-1.2-0.3-1.7-0.1c-0.7,0.3-1.3,1-2,1.6c0.2,0.1,0.4,0.2,0.5,0.3c1.8,0.9,1.9,1.7,0.4,3.1
		c-0.2,0.2-0.3,0.3-0.5,0.5c-0.9,0.8-1.8,1.6-2.9,2.6c1,0.2,1.9,0.2,2.6,0.5c1,0.4,1.7,0,2.4-0.7c1.1-0.9,2.2-1.8,3.3-2.6
		C131.2,227,132.7,225.8,134.3,224.4z M100,240.5c0.3,0.1,0.4,0.2,0.5,0.3c3,0.7,5.9,1.3,8.9,1.9c0.7,0.1,1.6,0.5,2,0.2
		c1.4-0.9,2.6-2,3.9-3.1c-0.2-0.2-0.2-0.2-0.3-0.2c-3.2-0.6-6.5-1.3-9.7-1.9c-0.4-0.1-1-0.3-1.3-0.1
		C102.7,238.5,101.4,239.5,100,240.5z M33.3,213.5c3.8,0.8,7.4,1.5,11,2.2c0.2,0,0.5,0.1,0.6,0c1-0.8,1.9-1.6,2.9-2.4
		c0-0.1-0.1-0.2-0.1-0.3c-1-0.2-2.1-0.3-3.1-0.5c-1.7-0.3-3.6-0.2-5.2-0.8c-2-0.8-3.5-0.6-5,0.9C34.1,212.9,33.8,213.1,33.3,213.5z
		 M139.9,220c-3.7-0.8-7.3-1.5-10.9-2.2c-0.5-0.1-1-0.3-1.4-0.1c-0.7,0.4-1.2,1-1.9,1.5c0.4,0.1,0.6,0.3,0.8,0.3
		c3.1,0.7,6.2,1.1,9.3,2C137.6,222.1,138.7,221.3,139.9,220z M121.9,234.5c-2.8-0.5-5.4-1-8-1.5c-0.1,0-0.3,0-0.4,0
		c-1,0.7-2,1.5-3.1,2.3c2.7,0.6,5.2,1.1,7.6,1.6c0.4,0.1,0.9,0.1,1.1-0.1C120,236.1,120.9,235.3,121.9,234.5z M36.6,217.6
		c-2.2-0.5-4.2-0.9-6.2-1.3c-0.3-0.1-0.7-0.1-0.9,0c-1,0.7-2,1.4-3.1,2.2c2.3,0.5,4.3,1,6.4,1.4c0.3,0.1,0.6,0,0.9-0.1
		C34.7,219.1,35.6,218.4,36.6,217.6z M40.6,208.1c1.6,0.4,3.1,0.7,4.6,1c1.9,0.5,2.7,0.1,3.9-1.6c-1.5-0.3-3-0.2-4.3-0.8
		c-1.9-0.9-2.9,0.1-4.1,1.1C40.7,207.9,40.7,207.9,40.6,208.1z M19.8,223.4c3.8,1.1,5.7,0.7,6.9-1.3c-0.8-0.2-1.7-0.5-2.5-0.7
		c-0.5-0.1-1.1-0.3-1.4-0.1C21.8,222,20.9,222.7,19.8,223.4z M85.4,233.9c0-0.1,0-0.2-0.1-0.3c-0.9-0.1-2-0.5-2.8-0.1
		c-1.3,0.6-2.5,1.6-3.9,2.5c0.8,0.2,1.4,0.4,2.1,0.5c0.4,0.1,1,0.2,1.3,0C83.1,235.6,84.2,234.8,85.4,233.9z M49.4,216.3
		c0.6,0.2,1.1,0.5,1.7,0.6c0.5,0.1,1.1,0.4,1.4,0.2c1.1-0.7,2-1.6,3.1-2.4C52.5,213.7,51.7,214,49.4,216.3z M106.2,225
		c0-0.1-0.1-0.2-0.1-0.3c-1-0.1-2.2-0.6-3.1-0.3c-1.1,0.4-2,1.4-3,2.3c0.6,0.2,1,0.4,1.4,0.4c0.7,0.1,1.6,0.3,2.1,0
		C104.5,226.6,105.4,225.7,106.2,225z M84.2,220.3c-3.8-0.6-3.9-0.6-5.9,1.5c0.5,0.7,2.4,1.5,2.8,1.1
		C82.2,222.1,83.1,221.2,84.2,220.3z M99.5,236.7c0-0.1,0-0.2,0-0.2c-0.9-0.1-2-0.5-2.7-0.2c-1.4,0.6-2.5,1.7-3.8,2.6
		c0,0.1,0,0.2,0.1,0.3c0.9,0.1,2,0.6,2.6,0.3C97.1,238.8,98.3,237.7,99.5,236.7z M72.5,224.9c-1.5-1.3-4.3-0.5-5.7,1.5
		C69.1,227.8,70.9,227,72.5,224.9z M91.5,221.8c-2.7-0.8-4.6-0.2-5.9,1.9c0.8,0.2,1.5,0.4,2.2,0.5c0.3,0.1,0.7,0.1,0.9-0.1
		C89.7,223.5,90.6,222.7,91.5,221.8z M93.1,225.1c2.2,1.1,3.6,0.7,5.7-1.7C96.3,221.8,94.6,223.2,93.1,225.1z M69.4,217.5
		c-2.5-1.1-3.8-0.6-5.8,1.9c1.1,0.1,1.9,1,3,0.3C67.6,219.1,68.4,218.3,69.4,217.5z M81.4,229.7c1.3,0.1,2.4,0.5,3.4,0.2
		c1-0.3,1.8-1.3,2.7-2C85.2,226.8,83.7,227.2,81.4,229.7z M34.4,223.8c-2.6-1.6-4.2,0.1-5.9,1.5C31,226.8,32.7,225.3,34.4,223.8z
		 M94.9,229.1c-0.6-0.1-1.2-0.3-1.8-0.4c-0.4-0.1-1-0.2-1.3,0.1c-1,0.7-1.9,1.4-2.9,2.2C91.7,231.8,93.2,231.3,94.9,229.1z
		 M86.2,237.5c0,0.1,0,0.2,0.1,0.3c0.8,0,1.8,0.4,2.4,0.1c1.3-0.7,2.4-1.8,3.6-2.7c-0.8-0.3-1.8-0.7-2.4-0.3
		C88.5,235.6,87.4,236.6,86.2,237.5z M120.5,227.5c-1.2-0.2-2.3-0.7-3-0.4c-1,0.4-1.8,1.4-2.9,2.3c0.8,0.2,1.4,0.4,1.9,0.5
		c0.3,0.1,0.7,0.2,0.9,0.1C118.4,229.3,119.4,228.5,120.5,227.5z M108.9,232.2c0-0.1,0-0.2,0-0.4c-0.9-0.1-1.9-0.6-2.6-0.3
		c-1.1,0.4-2,1.4-3.1,2.2c0.4,0.2,0.7,0.3,1,0.4c0.8,0.1,1.6,0.3,2.3,0C107.4,233.7,108.1,232.9,108.9,232.2z M52.2,223.6
		c2.7,1,4.1,0.5,5.8-1.8c-1-0.1-2-0.6-2.8-0.3C54.2,221.8,53.3,222.8,52.2,223.6z M76.5,218.9c-2.6-1.4-4,0.4-5.6,1.9
		c0.9,0.2,2,0.6,2.7,0.2C74.6,220.7,75.5,219.7,76.5,218.9z M80.1,226.3c-2-1-4.2-0.3-5.6,1.7C76.9,229.5,78.4,227.7,80.1,226.3z
		 M59.4,225.1c0.6,0.1,1,0.3,1.4,0.3c0.5,0.1,1.2,0.3,1.6,0.1c1-0.6,1.8-1.4,2.7-2.1C62.6,221.9,61.2,223.7,59.4,225.1z M87.1,209.3
		c-3.2-0.9-4.1-0.6-5.3,1.3C83.9,211.5,85.8,211.6,87.1,209.3z M113.1,226.3c-1.8-1.1-3-0.6-5.2,1.7c1.3,0.7,2.5,1,3.6-0.3
		C111.9,227.2,112.5,226.8,113.1,226.3z M62.1,215.9c-0.9,0-1.9-0.4-2.6-0.1c-1,0.5-1.9,1.4-2.8,2.1
		C59.3,219.4,60.5,217.4,62.1,215.9z M80.2,215.9c2.5,1.1,3.7,0.9,5.2-1.1C83.5,214.1,81.6,213.8,80.2,215.9z M58.5,203.6
		c-2-0.5-3.9-1.2-5.2,1.1C55.3,205.8,56.7,205.5,58.5,203.6z M102,230.6c-2.4-0.7-4.3,0-5.4,1.8C98.9,233.7,100.2,231.7,102,230.6z
		 M109.3,213.9c-2.8-0.9-3.8-0.6-5.1,1.2C106.1,215.8,107.9,215.8,109.3,213.9z M45.7,222.1c2.5,1.4,3.6-0.7,5.2-1.7
		C48.4,218.9,47.2,221,45.7,222.1z M94.6,211c-2-1-3.8-0.8-5.1,1.1C91.9,213,92.7,212.8,94.6,211z M101.8,212.4
		c-2.4-0.9-3.7-0.6-4.7,1.2C99,214.6,100.2,214.3,101.8,212.4z M107.5,219.3c-2-1.1-3.4-0.8-4.9,1.1
		C104.8,221.3,106,221.1,107.5,219.3z M56.7,209c-1-0.2-2-0.7-2.8-0.5c-0.8,0.2-1.6,0.9-2.4,1.5C54,211.2,54.7,211,56.7,209z
		 M118.5,217.9c2.4,0.9,3.7,0.6,4.8-1.2C121.4,215.8,119.8,216.2,118.5,217.9z M79.4,207.8c-2.7-0.7-3.4-0.5-4.7,1.3
		C76.6,210.1,78.2,209.8,79.4,207.8z M87.8,217.5c2.8,0.8,3.5,0.7,4.8-1.1C90.7,215.4,89.1,215.7,87.8,217.5z M121.6,222.2
		c-1.9-0.9-3.5-0.5-4.8,1.1C118.8,224.3,119.7,224.1,121.6,222.2z M72.3,206.5c-1.7-1-3.4-0.6-4.6,1.2
		C70.4,208.6,70.4,208.3,72.3,206.5z M100.1,217.9c-1.9-0.9-3.5-0.9-4.8,1C97.8,219.8,98.1,219.7,100.1,217.9z M73,214.5
		c2.1,0.9,3.5,0.6,4.6-1.1C75.7,212.4,74.2,213,73,214.5z M66,213.1c2.6,0.7,3.4,0.5,4.5-1.2C68.7,211.2,67.1,211.3,66,213.1z
		 M40.9,225.2c-1.3-0.8-3.4,0-4.7,1.7C37.9,227.6,39,227.3,40.9,225.2z M116,215.3c-1.7-0.9-2.7-0.6-4.4,1.2
		C114.1,217.4,114.4,217.1,116,215.3z M114.4,220.6c-2.3-0.7-3.3-0.4-4.4,1.2C111.8,222.9,113.2,222.2,114.4,220.6z M58.9,211.7
		c2,0.8,3.2,0.5,4.4-1.2C61.5,209.4,60.2,210.5,58.9,211.7z M60.8,206.3c1.9,0.8,3.1,0.4,4.3-1.2C63,204.3,62.5,204.4,60.8,206.3z
		 M50.9,202.2c-1.9-0.6-3.2-0.1-4.3,1.5C48.4,204.3,49.3,204.1,50.9,202.2z"/>
	<path class="st3" d="M151,254.5c-2.1-0.4-4-0.8-5.8-1.1c-3.6-0.7-7.3-1.3-10.9-2c-4.1-0.8-8.3-1.4-12.2-3.1
		c-0.7-0.3-1.3-0.6-1.9-1.1c-0.9-0.7-0.9-1.3,0-2.1c1.3-1.1,2.6-2.2,4-3.3c6.3-5.2,12.5-10.4,18.9-15.4c2.7-2.2,5.6-4.1,8.5-6.1
		c1-0.7,2.1-0.9,3.4-0.6c7.6,1.7,15.3,3.4,23,5.2c1.8,0.4,3.6,1.1,5.4,1.8c1.3,0.5,1.3,0.9,0.2,1.8c-10.3,8.4-20.6,16.8-30.9,25.2
		C152,254,151.4,254.2,151,254.5z M160.3,239.1c0,0.1,0,0.2,0,0.3c0.9,0.2,1.8,0.3,2.7,0.6c0.8,0.3,1.3,0,1.8-0.4
		c2.5-2.1,5-4.2,7.5-6.3c0.3-0.2,0.6-0.3,0.9-0.5c-0.1-0.1-0.2-0.2-0.2-0.4c-1.3-0.3-2.5-0.5-3.8-0.8c-0.2,0-0.4,0.1-0.5,0.2
		C165.8,234.3,163,236.7,160.3,239.1z M147.5,250.3c0.9,0.2,1.6,0.5,2.3,0.5c0.5,0,1.2-0.1,1.6-0.5c2.1-1.6,4.2-3.4,6.2-5.1
		c0.9-0.8,1.8-1.5,3-2.5c-1.3-0.2-2.2-0.4-3.1-0.5c-0.4,0-0.9,0.1-1.2,0.4c-2.7,2.3-5.4,4.6-8.2,7
		C147.9,249.8,147.8,250,147.5,250.3z M139.7,248.6c1,0.3,1.8,0.5,2.6,0.6c0.4,0.1,0.9,0.1,1.2-0.1c1-0.8,2-1.6,3.2-2.6
		c-1.3-0.3-2.3-0.5-3.3-0.8c-0.1,0-0.3,0-0.5,0.1C141.9,246.8,140.8,247.6,139.7,248.6z M139,244.9c-1-0.3-1.8-0.5-2.7-0.7
		c-0.3-0.1-0.8,0-1,0.1c-1.1,0.8-2.1,1.6-3.4,2.6c1.3,0.3,2.4,0.7,3.5,0.7c0.6,0,1.1-0.8,1.7-1.2C137.7,246,138.3,245.5,139,244.9z
		 M131.4,243.2c-1.6-0.6-3-1.1-4.2,0.4c-0.4,0.5-0.9,0.8-1.4,1.1c-0.3,0.3-0.6,0.5-1,0.9c0.7,0.1,1.2,0.2,1.7,0.2
		c0.5,0,1.1,0.3,1.4,0C129.1,245.1,130.2,244.1,131.4,243.2z M152.7,241.3c-1-0.3-1.9-0.5-2.8-0.7c-0.2,0-0.6,0-0.7,0.1
		c-0.9,0.7-1.7,1.4-2.5,2.1C149.3,244.1,150.8,243.7,152.7,241.3z M172.3,228.9c1.3,0.3,2.5,0.6,3.8,0.8c0.2,0.1,0.6,0.1,0.7,0
		c0.7-0.5,1.5-1.1,2.4-1.9c-1.1-0.2-2-0.2-2.8-0.5C174.6,226.7,173.5,227.6,172.3,228.9z M158.8,232.6c0.7,0.2,1.3,0.4,2,0.6
		c0.4,0.1,1,0.3,1.2,0.1c0.9-0.7,1.8-1.5,2.7-2.2C162.2,229.6,160.4,230.5,158.8,232.6z M152.7,237.7c2.6,1.1,4.5,0.6,5.7-1.6
		C155.5,235.2,155,235.3,152.7,237.7z M145,239.7c-2.5-1.4-4.3-0.3-5.9,1.6c0.9,0.2,1.8,0.5,2.7,0.6c0.2,0,0.5,0,0.7-0.2
		C143.4,241.1,144.2,240.4,145,239.7z M150.9,234.6c-2.4-1.6-3.9-0.1-5.4,1.6C147.9,237.3,149,237,150.9,234.6z M137.4,238.2
		c-2.1-1.1-3.5-0.6-5.4,1.7c0.6,0.1,1.1,0.3,1.7,0.4c0.4,0.1,1,0.2,1.2,0.1C135.8,239.7,136.6,239,137.4,238.2z M157.3,229.2
		c-1.2-0.1-2.2-0.5-2.9-0.2c-1,0.4-1.8,1.3-2.7,2C155.2,231.9,153.9,232.2,157.3,229.2z M165,227.3c1.9,0.7,3.7,1,5-1.1
		C168.1,225.1,166.4,225.4,165,227.3z M138.6,234.7c2.3,1.3,3.7-0.2,5.1-1.6C141.1,232.1,141.6,232.2,138.6,234.7z M150.1,227.9
		c-2.2-0.8-3.7-0.2-5.1,1.9c0.9,0.1,1.9,0.4,2.6,0.1C148.5,229.5,149.2,228.7,150.1,227.9z M158.1,225.9c1.8,0.8,3.3,0.6,4.4-1.1
		C160.8,223.8,159.9,224,158.1,225.9z M155.8,223.3c-2.3-0.5-3.4-0.2-4.3,1.3C153.3,225.7,154.5,224.5,155.8,223.3z"/>
	<path class="st3" d="M19.8,223.4c1-0.7,2-1.5,3-2c0.4-0.2,1,0,1.4,0.1c0.8,0.2,1.7,0.4,2.5,0.7C25.6,224.2,23.7,224.5,19.8,223.4z"
		/>
</g>
<g>
	<path class="st4" d="M482.7,8.5c1.1-1.9,2.2-3.8,3.3-5.7c0.3-0.5,0.8-1,0.9-1.6c0.4-1.5,1.6-1.3,2.4-0.9c3.5,1.5,7,3,10.3,4.9
		c2.1,1.2,4,3,5.9,4.6c0.8,0.7,1,1.4,0.3,2.4c-1.3,1.8-2.4,3.8-3.4,5.7c-0.5,0.8-0.5,1.7,0.6,2.4c2.4,1.6,4.7,3.4,7.1,5.1
		c1.3,0.9,1.5,1.8,0.5,3.2c-4.5,6.5-8.9,13.1-13.4,19.7c-2.5,3.6-5,7.3-7.4,10.9c-0.7,1-0.8,2,0.5,2.9c0.8,0.5,1.6,1.1,2,1.8
		c0.4,0.6,0.7,1.7,0.4,2.3c-1.5,3-3.3,5.9-4.9,8.9c-2.8,5-5.5,10-8.3,15c-4.5,8.1-8.9,16.1-13.4,24.2c-3.9,7-7.8,14-11.7,21
		c-4.5,8.1-9,16.2-13.4,24.4c-4.4,8.1-8.9,16.2-13.3,24.3c-3.2,5.9-6.3,11.8-9.6,17.6c-1.5,2.7-3.5,5.3-5.1,8
		c-2,3.3-3.9,6.7-5.7,10.2c-1.2,2.3-1.6,2.4-4.1,1.9c-0.9-0.2-2.1-0.2-2.9,0.1c-5.8,2.7-11.7,5.4-17.3,8.5c-1.7,0.9-2.9,3-4.2,4.6
		c-1.2,1.4-2.2,3-3.3,4.4c-0.2,0.3-0.6,0.8-0.9,0.7c-2.8-0.7-3.1,1.8-4.2,3.2c-1.2,1.6-2.1,3.4-3.1,5.1c-0.2,0.4-0.8,0.9-1.1,0.9
		c-2.1,0-4.2-0.2-6.3-0.3c-1.8-0.1-3.5-0.3-5.3-0.4c-2-0.2-2.3-0.8-1.3-2.5c2.3-4,4.6-8,6.8-12c0.3-0.5,0.4-1.5,0.1-1.7
		c-1.4-1.3-0.3-2.3,0.2-3.3c1.1-2.4,2.3-4.9,3.4-7.3c0.3-0.6,0.3-1.4,0.3-2c-0.2-5.7-0.5-11.5-0.5-17.2c0-1.9-0.8-3-2.1-4
		c-1.8-1.5-1.9-1.9-0.8-3.9c4.3-7.8,8.6-15.5,12.9-23.3c3.2-5.8,6.5-11.6,9.7-17.4c3.8-6.9,7.5-13.9,11.4-20.8
		c3.5-6.3,7.1-12.5,10.6-18.7c2.6-4.7,5.1-9.5,7.7-14.2c3.3-5.9,6.6-11.8,9.8-17.7c3.2-5.9,6.3-11.8,9.6-17.6
		c2.6-4.7,5.3-9.3,7.9-13.9c1.9-3.3,3.7-6.6,5.4-9.9c1.1-2.1,1.7-2.4,4-1.5c0.9,0.4,1.8,0.6,2.8,0.9c1.2,0.4,1.8-0.3,2.3-1.3
		c1.5-3.3,2.9-6.5,4.3-9.8c1.9-4.2,3.9-8.3,5.7-12.6c1.6-3.5,3-7.1,4.5-10.6c0.7-1.6,2-2.2,3.6-1.6C476.2,5.7,479.3,7.1,482.7,8.5z
		 M449.2,41.8c-0.5,0.5-1.2,0.8-1.5,1.3c-2.3,4-4.5,8-6.7,12c-1.4,2.6-1.4,2.7,1,4.1c4.9,2.7,9.8,5.5,14.7,8.2
		c7.8,4.3,15.6,8.7,23.4,13c0.9,0.5,1.4,0.3,1.9-0.6c2.4-4.3,4.8-8.5,7.2-12.8c0.5-0.9,0.5-1.8-0.5-2.6c-1.5-1.1-2.8-2.4-4.3-3.4
		c-4.8-3.3-9.5-6.7-14.6-9.6c-4.7-2.7-9.7-4.8-14.5-7.1C453.4,43.2,451.4,42.6,449.2,41.8z M413.2,203.4c-0.4-0.3-0.7-0.8-1.2-1.1
		c-1.5-0.9-3.1-1.7-4.6-2.6c-6.5-3.6-13-7.2-19.5-10.9c-4.8-2.7-9.6-5.4-14.4-8.1c-0.8-0.5-1.7-0.8-2.4,0.4c-2.4,4.4-4.9,8.7-7.3,13
		c-0.4,0.8-0.8,1.9,0.3,2.8c7.1,5.6,14.8,10.3,22.8,14.3c5.2,2.7,10.8,4.6,16.2,7.1c1.4,0.7,1.9,0,2.3-0.7c2.1-3.6,4-7.2,6-10.8
		C412,205.9,412.5,204.7,413.2,203.4z M365.9,201.9c-0.2,0.2-0.3,0.3-0.5,0.5c0,0.6,0,1.3,0,1.9c0.2,5.4,0.4,10.9,0.6,16.3
		c0,0.6,0.1,1.2-0.1,1.7c-1.2,2.4-2.5,4.6-3.6,7c-0.3,0.6-0.1,1.8,0.3,2.1c3.2,2.1,6.5,4,9.8,5.9c0.6,0.3,1.9,0.1,2.4-0.3
		c0.9-0.7,1.4-1.8,2.1-2.7c1.8-2.5,3.2-5.3,6.5-6.3c0.6-0.2,1.2-0.6,1.8-0.9c4.5-2.2,9-4.5,14-7
		C387.4,214.9,376.2,209.3,365.9,201.9z M479.9,12.5c-0.4-0.5-0.9-1.4-1-1.3c-0.7,0.3-1.5,0.6-1.8,1.2c-1,1.8-1.8,3.7-2.7,5.6
		c-2.7,5.8-5.4,11.5-8.1,17.3c-1,2.1-2,4.2-2.8,6.3c-0.2,0.6,0.2,1.4,0.4,2.2c0.7-0.4,1.7-0.6,2-1.2c1.3-2.3,2.4-4.7,3.5-7.1
		c2.8-5.9,5.5-11.7,8.2-17.6C478.3,16.1,479,14.3,479.9,12.5z M473.6,48.9c0.3-0.2,0.7-0.4,0.9-0.7c0.5-0.7,1-1.4,1.4-2.1
		c3.2-6.1,6.4-12.3,9.7-18.4c1.5-2.8,3-5.5,4.4-8.3c0.3-0.5-0.2-1.4-0.4-2.2c-0.6,0.2-1.4,0.2-1.8,0.7c-0.7,1-1.2,2.2-1.8,3.3
		c-3.5,6.6-7,13.1-10.5,19.7c-1.1,2-2.1,4.1-3.1,6.1C471.9,48,472.4,48.5,473.6,48.9z M500.1,24c-0.8,0.5-1.7,0.8-2.1,1.3
		c-1.1,1.6-1.9,3.3-2.8,4.9c-4.4,7.5-8.8,15-13.4,22.4c-1,1.5-0.5,2.1,1.1,3c0.9-1.5,1.8-2.8,2.6-4.2c4.4-7.2,8.8-14.4,13-21.7
		C499.4,28.1,501.1,26.7,500.1,24z"/>
</g>
<g>
	<path class="st5" d="M704.8,132c0,22.1,0,44.1,0,66.2c0,7-0.2,14,0,21c0.3,8.7-5.5,14-12.7,16.1c-5.1,1.6-10.3,1-15.4,1.1
		c-8.9,0.1-17.7,0.2-26.6-0.1c-6.1-0.2-11.7-2.2-15.8-7.2c-2.1-2.6-3.1-5.7-3.1-9.1c0-18.1,0-36.2,0-54.3c0-18.5-0.1-37-0.1-55.5
		c0-15.3,0-30.6,0.1-45.8c0-6.8,0-13.5,0.1-20.3c0.1-8.3,6.3-13.2,13.4-15c6.5-1.7,13.1-0.9,19.7-1c6.5-0.2,13-0.1,19.5,0
		c5,0.1,9.7,1.1,14,3.9c4.1,2.7,6.7,6.4,6.7,11.4c0.2,9.6,0.2,19.3,0.2,28.9c0,12.2,0,24.4,0,36.5
		C704.8,116.6,704.8,124.3,704.8,132C704.8,132,704.8,132,704.8,132z M643.6,132.2c0,9.9,0,19.9,0,29.8c0,17.7,0,35.4,0,53.1
		c0,1.5,0.5,3.2,1.2,4.5c1.9,3.5,5.3,4.4,8.9,4.5c8.7,0.1,17.5,0.1,26.2,0.1c1.8,0,3.6-0.2,5.4-0.4c4.1-0.6,7.2-4.1,7.2-8.3
		c0-20.2,0-40.4,0-60.6c0-18.6,0-37.2,0-55.8c0-16.2,0-32.5,0-48.7c0-6.2-3.4-9.7-9.6-9.8c-9.8-0.1-19.5-0.1-29.3,0
		c-1.6,0-3.3,0.3-4.8,0.9c-3.6,1.5-5.3,4.3-5.2,8.3c0,10,0,20.1,0,30.1C643.6,97.3,643.6,114.8,643.6,132.2z"/>
	<path class="st5" d="M783.4,40.4c18.5,0,37,0,55.5,0c2.6,0,5.2,0.1,7.8-0.1c3-0.2,4.8,1.4,6.3,3.7c3,4.8,4.4,10.1,5.6,15.5
		c4,17.8,5,35.9,5.3,54.1c0.2,15.9,0.1,31.8-0.3,47.7c-0.2,9.1-1.1,18.2-2.1,27.3c-0.9,8.3-2.3,16.7-5.1,24.6
		c-1,2.9-2.6,5.6-4.1,8.3c-1.1,2-3,2.8-5.4,2.8c-16-0.1-31.9-0.1-47.9-0.1c-15.2,0-30.3,0.1-45.5,0.1c-11.6,0-23.1-0.1-34.7,0
		c-1.3,0-1.8-0.4-1.7-1.7c0.1-3,0.1-6,0-9c-0.1-1.4,0.5-1.7,1.8-1.7c13.1,0,26.3,0,39.4,0c15.7,0,31.5,0,47.2-0.1
		c11.7,0,23.3,0,35,0.1c2.2,0,3.5-0.8,4.2-2.6c1.1-3,2.3-6.1,3-9.3c2.3-10.3,3.2-20.7,3.6-31.2c0.4-9.5,0.9-19,0.9-28.6
		c0-13.1,0-26.3-0.6-39.4c-0.5-10.3-1.6-20.6-2.8-30.8c-0.5-4.2-1.9-8.3-3-12.5c-0.3-1-0.9-2-1.3-2.9c-0.7-1.5-1.8-2-3.5-2
		c-20.8,0.1-41.5,0-62.3,0c-19.9,0-39.7,0-59.6,0c-1.5,0-2.1-0.4-2-2c0.1-3,0.1-6,0-9c0-1.1,0.4-1.4,1.4-1.4c9.3,0,18.6,0,27.9,0
		c8.5,0,16.9,0,25.4,0C775.6,40.4,779.5,40.4,783.4,40.4C783.4,40.4,783.4,40.4,783.4,40.4z"/>
	<path class="st5" d="M778.4,89.4c-15.2,0-30.3,0-45.5,0c-3.1,0-3.5-0.4-3.5-3.5c0-6.2,0-12.4,0-18.6c0-1.8,0.6-2.5,2.4-2.5
		c9.9,0,19.7,0,29.6-0.1c12.1,0,24.1,0,36.2,0c9,0,18,0,27.1,0.1c2.1,0,2.8,0.7,2.8,2.9c0,6.4,0,12.7,0,19.1c0,1.9-0.7,2.6-2.6,2.6
		c-10.9,0-21.9,0-32.8,0C787.5,89.4,782.9,89.4,778.4,89.4C778.4,89.4,778.4,89.4,778.4,89.4z"/>
	<path class="st5" d="M619,52.7c-1.5,0-2.8,0.1-4,0c-1.3-0.1-2.1,0.4-2.5,1.5c-0.8,2.5-1.6,4.9-2.1,7.5c-2.1,11.4-2.8,22.9-3,34.5
		c-0.3,22.1-0.5,44.2-0.2,66.3c0.1,11.3,1.2,22.6,2.2,33.9c0.3,3.9,1.3,7.8,2.2,11.6c0.9,3.7,1.4,4,5.1,4c2.3,0,2.3,0,2.4,2.4
		c0,3.3,0,6.5,0,9.9c-4.2,0-8.1,0.1-12-0.1c-0.7,0-1.8-1-2.1-1.7c-1.4-3.2-2.9-6.4-3.7-9.8c-3.3-13.8-4.5-27.8-5.2-41.9
		c-0.7-14.2-1.3-28.4-1.6-42.6c-0.3-16.4-0.1-32.8,1.4-49.2c0.7-7.4,1.8-14.9,3-22.3c0.7-4.4,2-8.8,4.2-12.8
		c1.3-2.3,2.9-3.9,5.9-3.6c2.9,0.2,5.7,0.1,8.6,0c1,0,1.4,0.3,1.4,1.3C619,45.3,619,48.8,619,52.7z"/>
	<path class="st5" d="M766.1,113.8c-0.2-6.4,5.2-12,11.9-12.2c6.8-0.2,12.4,5.2,12.7,12.3c0.2,6.1-5.5,12.1-11.8,12.3
		C771.9,126.4,766.3,121.1,766.1,113.8z"/>
	<path class="st5" d="M778.5,199.7c-6.7,0-12.3-5.3-12.4-11.9c-0.1-7,5.3-12.6,12.2-12.7c6.6-0.1,12.4,5.7,12.4,12.4
		C790.7,194,785.1,199.6,778.5,199.7z"/>
	<path class="st5" d="M815.1,199.7c-6.8,0-12.2-5.4-12.2-12.3c0-6.9,5.4-12.3,12.3-12.3c6.8,0,12.2,5.6,12.2,12.3
		C827.4,194.3,821.9,199.7,815.1,199.7z"/>
	<path class="st5" d="M802.9,113.7c-0.1-6.5,5.6-12.1,12.2-12.2c6.6,0,12.3,5.6,12.3,12.1c0.1,6.9-5.3,12.4-12.2,12.5
		C808.3,126.2,803,120.9,802.9,113.7z"/>
	<path class="st5" d="M778.2,162.9c-6.7,0-12.2-5.5-12.2-12.3c0-6.7,5.7-12.3,12.3-12.3c6.8,0.1,12.2,5.6,12.2,12.3
		C790.7,157.5,785.2,162.9,778.2,162.9z"/>
	<path class="st5" d="M729.3,113.9c0.2-7.1,5.8-12.5,12.8-12.3c6.4,0.2,11.9,5.9,11.7,12.3c-0.2,7.3-5.7,12.5-13,12.3
		C734.7,126,729.2,120.2,729.3,113.9z"/>
	<path class="st5" d="M729.3,187.4c0-6.6,5.5-12.3,11.9-12.3c7.1,0,12.6,5.3,12.6,12.2c0,6.9-5.4,12.4-12.3,12.3
		C734.8,199.7,729.3,194.1,729.3,187.4z"/>
	<path class="st5" d="M729.4,150.4c-0.1-6.4,5.4-12,11.9-12c7.1,0,12.7,5.6,12.6,12.4c-0.1,6.5-5.8,12.2-12.1,12.1
		C734.6,162.9,729.3,157.5,729.4,150.4z"/>
	<path class="st5" d="M815,162.9c-6.7,0-12.1-5.7-12.1-12.4c0-6.7,5.6-12.2,12.4-12.1c6.8,0.1,12.3,5.6,12.2,12.3
		C827.4,157.4,821.7,163,815,162.9z"/>
</g>
</svg>
